HIERARCHY
ROOT Hips
{
  OFFSET 5.80788e-005 67.184 3.4734
  CHANNELS 6 Xposition Yposition Zposition Zrotation Xrotation Yrotation
  JOINT Chest
  {
    OFFSET 0 8.7983 -4.7612
    CHANNELS 3 Zrotation Xrotation Yrotation
    JOINT Chest2
    {
      OFFSET 0 8.0291 0.4195
      CHANNELS 3 Zrotation Xrotation Yrotation
      JOINT Chest3
      {
        OFFSET 0 9.9351 -2.2114
        CHANNELS 3 Zrotation Xrotation Yrotation
        JOINT Neck
        {
          OFFSET 0 22.3885 -0.4656
          CHANNELS 3 Zrotation Xrotation Yrotation
          JOINT Head
          {
            OFFSET -0.0001 12.643 3.4389
            CHANNELS 3 Zrotation Xrotation Yrotation
            End Site
            {
              OFFSET 0.0001 17.6655 0.5274
            }
          }
        }
        JOINT LeftCollar
        {
          OFFSET 2.2603 21.606 7.4023
          CHANNELS 3 Zrotation Xrotation Yrotation
          JOINT LeftShoulder
          {
            OFFSET 13.5163 -1.1332 -5.0146
            CHANNELS 3 Zrotation Xrotation Yrotation
            JOINT LeftElbow
            {
              OFFSET -0.0995 -28.05 -0.2431
              CHANNELS 3 Zrotation Xrotation Yrotation
              JOINT LeftWrist
              {
                OFFSET 0.0679 -23.3996 -0.1402
                CHANNELS 3 Zrotation Xrotation Yrotation
                JOINT LeftFinger1
                {
                  OFFSET 0.7932 -9.069 2.5189
                  CHANNELS 3 Zrotation Xrotation Yrotation
                  JOINT LeftFinger11
                  {
                    OFFSET -0.8272 -3.3923 0.5977
                    CHANNELS 3 Zrotation Xrotation Yrotation
                    JOINT LeftFinger12
                    {
                      OFFSET -0.5649 -2.3158 0.4082
                      CHANNELS 3 Zrotation Xrotation Yrotation
                      End Site
                      {
                        OFFSET -0.4919 -1.6479 0.2673
                      }
                    }
                  }
                }
                JOINT LeftFinger2
                {
                  OFFSET 0.9159 -9.2044 0.2193
                  CHANNELS 3 Zrotation Xrotation Yrotation
                  JOINT LeftFinger21
                  {
                    OFFSET 0.0117 -4.1944 -0.0248
                    CHANNELS 3 Zrotation Xrotation Yrotation
                    JOINT LeftFinger22
                    {
                      OFFSET 0.0071 -2.3249 -0.0142
                      CHANNELS 3 Zrotation Xrotation Yrotation
                      End Site
                      {
                        OFFSET -0.1475 -2.0882 0.0028
                      }
                    }
                  }
                }
                JOINT LeftFinger3
                {
                  OFFSET 0.6113 -8.7231 -2.0637
                  CHANNELS 3 Zrotation Xrotation Yrotation
                  JOINT LeftFinger31
                  {
                    OFFSET -0.1927 -3.8059 -0.2383
                    CHANNELS 3 Zrotation Xrotation Yrotation
                    JOINT LeftFinger32
                    {
                      OFFSET -0.1091 -2.1688 -0.1362
                      CHANNELS 3 Zrotation Xrotation Yrotation
                      End Site
                      {
                        OFFSET -0.2358 -1.9176 -0.0906
                      }
                    }
                  }
                }
                JOINT LeftFinger4
                {
                  OFFSET -0.6151 -8.0947 -3.5641
                  CHANNELS 3 Zrotation Xrotation Yrotation
                  JOINT LeftFinger41
                  {
                    OFFSET -0.4882 -2.341 -0.6462
                    CHANNELS 3 Zrotation Xrotation Yrotation
                    JOINT LeftFinger42
                    {
                      OFFSET -0.3575 -1.7167 -0.4742
                      CHANNELS 3 Zrotation Xrotation Yrotation
                      End Site
                      {
                        OFFSET -0.4187 -1.5237 -0.3496
                      }
                    }
                  }
                }
                JOINT LeftFinger0
                {
                  OFFSET -1.42 -1.8761 1.4223
                  CHANNELS 3 Zrotation Xrotation Yrotation
                  JOINT LeftFinger01
                  {
                    OFFSET -1.1471 -3.4929 2.6334
                    CHANNELS 3 Zrotation Xrotation Yrotation
                    JOINT LeftFinger02
                    {
                      OFFSET -0.823 -2.3 1.6571
                      CHANNELS 3 Zrotation Xrotation Yrotation
                      End Site
                      {
                        OFFSET -0.5822 -1.6914 1.1582
                      }
                    }
                  }
                }
              }
            }
          }
        }
        JOINT RightCollar
        {
          OFFSET -2.2603 21.606 7.4023
          CHANNELS 3 Zrotation Xrotation Yrotation
          JOINT RightShoulder
          {
            OFFSET -13.5187 -1.1334 -5.0155
            CHANNELS 3 Zrotation Xrotation Yrotation
            JOINT RightElbow
            {
              OFFSET 0.0994 -28.0499 -0.2431
              CHANNELS 3 Zrotation Xrotation Yrotation
              JOINT RightWrist
              {
                OFFSET -0.0679 -23.3996 -0.1402
                CHANNELS 3 Zrotation Xrotation Yrotation
                JOINT RightFinger1
                {
                  OFFSET -0.7932 -9.0691 2.5189
                  CHANNELS 3 Zrotation Xrotation Yrotation
                  JOINT RightFinger11
                  {
                    OFFSET 0.8272 -3.3923 0.5977
                    CHANNELS 3 Zrotation Xrotation Yrotation
                    JOINT RightFinger12
                    {
                      OFFSET 0.565 -2.3158 0.4082
                      CHANNELS 3 Zrotation Xrotation Yrotation
                      End Site
                      {
                        OFFSET 0.4919 -1.6479 0.2673
                      }
                    }
                  }
                }
                JOINT RightFinger2
                {
                  OFFSET -0.916 -9.2044 0.2193
                  CHANNELS 3 Zrotation Xrotation Yrotation
                  JOINT RightFinger21
                  {
                    OFFSET -0.0117 -4.1944 -0.0248
                    CHANNELS 3 Zrotation Xrotation Yrotation
                    JOINT RightFinger22
                    {
                      OFFSET -0.0071 -2.3249 -0.0142
                      CHANNELS 3 Zrotation Xrotation Yrotation
                      End Site
                      {
                        OFFSET 0.1475 -2.0882 0.0028
                      }
                    }
                  }
                }
                JOINT RightFinger3
                {
                  OFFSET -0.6113 -8.7231 -2.0637
                  CHANNELS 3 Zrotation Xrotation Yrotation
                  JOINT RightFinger31
                  {
                    OFFSET 0.1927 -3.8059 -0.2383
                    CHANNELS 3 Zrotation Xrotation Yrotation
                    JOINT RightFinger32
                    {
                      OFFSET 0.1091 -2.1688 -0.1362
                      CHANNELS 3 Zrotation Xrotation Yrotation
                      End Site
                      {
                        OFFSET 0.2358 -1.9176 -0.0906
                      }
                    }
                  }
                }
                JOINT RightFinger4
                {
                  OFFSET 0.6151 -8.0947 -3.564
                  CHANNELS 3 Zrotation Xrotation Yrotation
                  JOINT RightFinger41
                  {
                    OFFSET 0.4882 -2.341 -0.6462
                    CHANNELS 3 Zrotation Xrotation Yrotation
                    JOINT RightFinger42
                    {
                      OFFSET 0.3574 -1.7166 -0.4742
                      CHANNELS 3 Zrotation Xrotation Yrotation
                      End Site
                      {
                        OFFSET 0.4187 -1.5237 -0.3496
                      }
                    }
                  }
                }
                JOINT RightFinger0
                {
                  OFFSET 1.4199 -1.8761 1.4221
                  CHANNELS 3 Zrotation Xrotation Yrotation
                  JOINT RightFinger01
                  {
                    OFFSET 1.1472 -3.4929 2.6336
                    CHANNELS 3 Zrotation Xrotation Yrotation
                    JOINT RightFinger02
                    {
                      OFFSET 0.8229 -2.3 1.6571
                      CHANNELS 3 Zrotation Xrotation Yrotation
                      End Site
                      {
                        OFFSET 0.5822 -1.6914 1.1582
                      }
                    }
                  }
                }
              }
            }
          }
        }
      }
    }
  }
  JOINT RightHip
  {
    OFFSET -9.412 3.9771 -0.7758
    CHANNELS 3 Zrotation Xrotation Yrotation
    JOINT RightKnee
    {
      OFFSET -0.7531 -40.938 0
      CHANNELS 3 Zrotation Xrotation Yrotation
      JOINT RightAnkle
      {
        OFFSET 0 -40.1986 0
        CHANNELS 3 Zrotation Xrotation Yrotation
        JOINT RightToe
        {
          OFFSET 0 -4.4182 9.239
          CHANNELS 3 Zrotation Xrotation Yrotation
          End Site
          {
            OFFSET 0 0 6.1981
          }
        }
      }
    }
  }
  JOINT LeftHip
  {
    OFFSET 9.4119 3.9773 -0.7758
    CHANNELS 3 Zrotation Xrotation Yrotation
    JOINT LeftKnee
    {
      OFFSET 0.7532 -40.9383 0
      CHANNELS 3 Zrotation Xrotation Yrotation
      JOINT LeftAnkle
      {
        OFFSET 0 -40.1986 0
        CHANNELS 3 Zrotation Xrotation Yrotation
        JOINT LeftToe
        {
          OFFSET 0 -4.4182 9.239
          CHANNELS 3 Zrotation Xrotation Yrotation
          End Site
          {
            OFFSET 0 0 6.1981
          }
        }
      }
    }
  }
}
MOTION
Frames:	4
Frame Time:	0.0333333
5.80788e-005 67.184 3.4734 0 0 -0 0 0 -0 0 0 -0 0 0 -0 0 0 -0 0 0 -0 0 0 -12.5014 88.1196 14.2451 10.6914 -0.00160068 -0.00239207 0.000740045 -8.4365e-005 7.00714e-005 -9.52055e-007 9.93923e-017 -1.98785e-016 -1.59028e-015 9.93923e-017 -5.96354e-016 -1.59028e-015 -9.93923e-017 -5.96354e-016 -1.59028e-015 9.93923e-017 -1.98785e-016 -1.59028e-015 -0.0128176 0.00232552 8.52707e-005 9.93923e-017 5.96354e-016 -0 9.93923e-017 -1.98785e-016 -1.59028e-015 -0.0160551 0.00299681 0.000857156 -2.48481e-016 0 3.18055e-015 9.93923e-017 -1.98785e-016 -1.59028e-015 -0.0125865 0.0031206 0.00282719 0 1.98785e-016 -0 9.93923e-017 -1.98785e-016 -1.59028e-015 9.93923e-017 -5.96354e-016 -1.59028e-015 -9.93923e-017 -5.96354e-016 -1.59028e-015 -0.865644 0.16582 7.03859 -88.0329 10.2057 -10.5567 0.0015593 -0.00248883 -0.000788628 7.87605e-005 4.10553e-005 1.24965e-005 -3.97569e-016 -7.95139e-016 3.18055e-015 -1.98785e-016 -3.97569e-016 3.18055e-015 -1.98785e-016 0 3.18055e-015 -3.97569e-016 -7.95139e-016 3.18055e-015 0.0129473 0.00231697 -8.70038e-005 9.93923e-017 -7.95139e-016 1.59028e-015 -3.97569e-016 -7.95139e-016 3.18055e-015 0.0163314 0.00303369 -0.000872333 3.97569e-016 7.95139e-016 -3.18055e-015 -3.97569e-016 -7.95139e-016 3.18055e-015 0.0145763 0.00367772 -0.00326275 9.93923e-017 -3.97569e-016 -0 -3.97569e-016 -7.95139e-016 3.18055e-015 -1.98785e-016 -3.97569e-016 3.18055e-015 -1.98785e-016 0 3.18055e-015 3.42485 1.36937 -0.0640303 0.000136572 0.69354 0.00145564 -3.42573 -2.06297 -0.0607933 -3.19502e-024 0 -1.48106e-024 -3.42498 1.36123 0.0639712 -6.769e-005 0.712612 -0.0012277 3.42582 -2.07388 0.0612819 2.55305e-023 0 -2.31416e-026 
0.127578 2.52763 6.75213 -179.999 -89.9981 -179.999 -0.00630842 5.23574 -0.103316 -0.0031092 10.4715 -0.207358 -0.00310906 10.4716 -0.207358 3.64823e-007 17.9984 -8.77553e-007 5.60647e-008 8.99856 1.29507e-007 1.24442 0.579677 -2.00613 17.607 -6.62857 29.3686 -12.7455 -68.7864 0.661916 -50.1355 7.78757 28.362 6.36111e-015 3.18055e-015 -3.18055e-015 3.18055e-015 0 -0 0 3.18055e-015 -0 6.36111e-015 3.18055e-015 -3.18055e-015 -0.0128098 0.00233044 9.63581e-005 0 0 -6.36111e-015 6.36111e-015 3.18055e-015 -3.18055e-015 -0.0160677 0.00300136 0.000850727 -6.36111e-015 -9.54166e-015 3.18055e-015 6.36111e-015 3.18055e-015 -3.18055e-015 -0.0125926 0.00311382 0.00283642 -1.27222e-014 -3.18055e-015 -0 6.36111e-015 3.18055e-015 -3.18055e-015 3.18055e-015 0 -0 0 3.18055e-015 -0 -7.49264 0.383479 12.8725 -24.1091 -22.878 -25.2302 -2.12915 -76.0319 -16.2605 73.125 11.9141 -15.9901 -1.59028e-015 0 -0 3.18055e-015 0 6.36111e-015 -4.77083e-015 -3.18055e-015 -0 -1.59028e-015 0 -0 0.0129819 0.00232229 -8.63083e-005 4.77083e-015 -3.18055e-015 -3.18055e-015 -1.59028e-015 0 -0 0.0163394 0.00303846 -0.000872423 1.0737e-005 1.60331e-006 1.20883e-006 -1.59028e-015 0 -0 0.0145531 0.00366914 -0.00325363 -9.3873e-006 -9.63831e-007 -4.0999e-006 -1.59028e-015 0 -0 3.18055e-015 0 6.36111e-015 -4.77083e-015 -3.18055e-015 -0 -167.172 -38.1936 -173.584 3.65337 44.6674 -3.42588 -8.29873 13.8674 -0.604527 2.4998e-006 -1.66261e-006 2.94421e-007 146.645 -42.4921 158.407 -1.99566 9.67008 0.66716 8.64791 11.706 1.04669 -4.61619e-007 1.07373e-007 -1.51131e-006 
0.124774 2.52708 6.75061 -179.999 -89.9981 -179.999 -0.00761593 5.35801 -0.103065 -0.00553824 10.716 -0.206778 -0.00553824 10.7161 -0.206779 7.32476e-008 17.7291 4.20458e-007 -1.3555e-007 8.56329 6.74563e-008 1.81144 0.370802 -2.10461 17.4105 -6.69829 29.3152 -12.763 -69.4359 0.618623 -49.8207 7.3225 28.4749 -3.18055e-015 -1.59028e-014 6.36111e-015 -4.75985e-006 -1.86551e-006 6.79608e-006 3.55966e-006 8.37034e-006 -2.16363e-006 -3.18055e-015 -1.59028e-014 6.36111e-015 -0.0128256 0.00233073 8.95258e-005 2.66525e-006 7.30984e-006 -1.55897e-007 -3.18055e-015 -1.59028e-014 6.36111e-015 -0.0160364 0.00298635 0.000867901 1.09677e-005 9.28695e-006 -3.24847e-006 -3.18055e-015 -1.59028e-014 6.36111e-015 -0.0125708 0.00311858 0.00282783 -3.18055e-015 1.27222e-014 -0 -3.18055e-015 -1.59028e-014 6.36111e-015 -4.75985e-006 -1.86551e-006 6.79608e-006 3.55966e-006 8.37034e-006 -2.16363e-006 -8.08717 -0.0826163 12.6219 -23.8189 -22.9459 -25.0627 -1.78828 -76.3766 -15.9163 72.8045 11.5515 -15.9619 -3.18055e-015 -3.18055e-015 3.18055e-015 -0 0 3.18055e-015 1.76556e-031 -3.18055e-015 3.18055e-015 -3.18055e-015 -3.18055e-015 3.18055e-015 0.0129241 0.00231022 -7.9615e-005 -1.59028e-015 -6.36111e-015 -0 -3.18055e-015 -3.18055e-015 3.18055e-015 0.01637 0.00304166 -0.000876283 -3.18055e-015 3.18055e-015 -0 -3.18055e-015 -3.18055e-015 3.18055e-015 0.0145593 0.00367194 -0.0032534 -1.59028e-015 3.18055e-015 -0 -3.18055e-015 -3.18055e-015 3.18055e-015 -0 0 3.18055e-015 1.76556e-031 -3.18055e-015 3.18055e-015 -167.175 -38.1844 -173.574 3.51056 44.2253 -3.32486 -8.29786 13.8769 -0.601463 1.78906e-015 1.59028e-015 -1.59028e-015 146.794 -42.7972 158.363 -2.1244 9.26392 0.677648 8.6572 12.0264 1.00661 -4.60771e-007 1.77205e-006 -1.51534e-006 
0.121971 2.52653 6.7491 -180 -89.9981 -180 -0.0089733 5.48036 -0.102752 -0.00807588 10.9607 -0.206062 -0.00807588 10.9607 -0.206063 -2.93656e-008 17.4598 -1.99132e-007 -2.92153e-008 8.12763 4.80284e-008 2.37827 0.161032 -2.20105 17.214 -6.76788 29.2616 -12.7827 -70.0855 0.573211 -49.5053 6.85793 28.5902 -6.36111e-015 -9.54166e-015 -0 -3.18055e-015 -1.59028e-014 -0 1.784e-006 1.35197e-006 1.83751e-006 -6.36111e-015 -9.54166e-015 -0 -0.0128333 0.00232952 8.62984e-005 3.18055e-015 6.36111e-015 3.18055e-015 -6.36111e-015 -9.54166e-015 -0 -0.016032 0.00299727 0.000862725 6.36111e-015 6.36111e-015 -3.18055e-015 -6.36111e-015 -9.54166e-015 -0 -0.0126138 0.00314258 0.00282477 3.18055e-015 -3.18055e-015 -3.18055e-015 -6.36111e-015 -9.54166e-015 -0 -3.18055e-015 -1.59028e-014 -0 1.784e-006 1.35197e-006 1.83751e-006 -8.68408 -0.54623 12.3663 -23.5282 -23.013 -24.8948 -1.42975 -76.7209 -15.5543 72.4845 11.1886 -15.9358 0 0 -0 3.53113e-031 3.18055e-015 -6.36111e-015 1.59028e-015 -6.9676e-008 -0 0 0 -0 0.0129358 0.00231356 -8.9073e-005 6.73763e-007 -6.96831e-008 -1.45308e-006 0 0 -0 0.0163688 0.00304186 -0.000878372 6.73746e-007 -6.96839e-008 -1.45306e-006 0 0 -0 0.0145681 0.00367954 -0.00325669 -4.02445e-007 -1.81025e-006 -3.0914e-006 0 0 -0 3.53113e-031 3.18055e-015 -6.36111e-015 1.59028e-015 -6.9676e-008 -0 -167.179 -38.1754 -173.565 3.36958 43.7827 -3.22591 -8.29692 13.8865 -0.598452 9.49825e-007 2.05622e-007 -7.45444e-007 146.943 -43.1031 158.32 -2.25295 8.85602 0.68713 8.66681 12.3477 0.966391 -4.59863e-007 3.25716e-007 -1.51934e-006 
